<svg width="742" height="280" viewBox="0 0 742 280" fill="none" xmlns="http://www.w3.org/2000/svg">
<path fill-rule="evenodd" clip-rule="evenodd" d="M399.43 0.0440912C399.34 0.127356 378.355 0.631403 376.892 0.58531C376.382 0.569326 373.208 0.736227 369.839 0.956283C366.471 1.17634 362.295 1.40903 360.559 1.47371C356.325 1.63132 350.245 2.03612 348.841 2.25394C348.214 2.35096 346.107 2.50188 344.157 2.5896C339.317 2.80706 334.331 3.16911 330.121 3.60922C324.918 4.15304 323.555 4.27348 320.35 4.47346C318.753 4.57308 317.147 4.81544 316.779 5.01208C316.413 5.20872 316.01 5.26708 315.885 5.14181C315.761 5.01654 313.943 5.1065 311.846 5.34179C309.75 5.57672 307.116 5.8648 305.993 5.98152C304.87 6.09861 303.366 6.26253 302.652 6.3458C301.937 6.42906 299.014 6.77104 296.156 7.10522C293.298 7.43939 290.311 7.76055 289.518 7.81891C288.726 7.87727 287.954 8.12669 287.802 8.37277C287.633 8.64635 287.438 8.67906 287.302 8.45752C287.158 8.22482 286.508 8.21925 285.492 8.44191C284.62 8.63297 281.317 9.10319 278.153 9.48643C270.389 10.4269 267.857 10.8071 266.02 11.3075C265.165 11.5402 264.33 11.6952 264.164 11.652C263.997 11.6086 263.36 11.6874 262.748 11.8268C262.135 11.9661 260.966 12.1754 260.149 12.2918C259.333 12.4081 258.331 12.5795 257.922 12.6728C257.514 12.7661 256.094 13.0044 254.767 13.2028C251.666 13.666 250.545 13.8481 248.271 14.2574C247.25 14.4414 245.246 14.8001 243.817 15.0547C242.387 15.3094 239.965 15.761 238.434 16.0587C236.903 16.3561 234.898 16.7434 233.98 16.9193C233.061 17.0951 231.14 17.5092 229.711 17.8393C228.282 18.1697 225.776 18.6671 224.143 18.9451C222.51 19.2228 220.677 19.6432 220.071 19.8792C219.464 20.1153 217.733 20.545 216.223 20.8342C214.713 21.1234 213.288 21.5085 213.057 21.6899C212.825 21.8709 212.051 22.0363 211.336 22.0568C210.622 22.0776 208.868 22.3619 207.439 22.6894C206.01 23.0165 203.755 23.5128 202.428 23.7916C201.101 24.0707 199.43 24.4629 198.716 24.6632C194.766 25.771 191.161 26.727 188.693 27.3218C182.619 28.7848 176.021 30.6694 175.476 31.0965C175.25 31.2735 174.331 31.5705 173.434 31.7567C172.537 31.9426 170.217 32.5485 168.277 33.1034C166.338 33.658 164.083 34.2773 163.266 34.4795C162.449 34.6817 161.232 35.0787 160.562 35.3616C159.892 35.6449 159.015 35.8764 158.613 35.8764C158.212 35.8764 157.884 36.0437 157.884 36.2481C157.884 36.4526 157.559 36.6199 157.163 36.6199C156.767 36.6199 156.332 36.7987 156.198 37.0169C156.063 37.2354 155.732 37.3291 155.462 37.2254C155.192 37.1217 153.831 37.464 152.437 37.9863C151.043 38.5086 149.485 39.0126 148.975 39.107C148.464 39.2011 147.713 39.4159 147.304 39.5843C146.896 39.7531 145.56 40.1816 144.335 40.537C143.11 40.892 141.911 41.3369 141.671 41.5258C141.432 41.7142 140.847 41.9138 140.372 41.9689C139.897 42.0239 138.768 42.432 137.862 42.8759C136.956 43.3193 135.979 43.6825 135.691 43.6825C135.206 43.6825 133.277 44.4322 131.856 45.1731C131.526 45.3452 130.523 45.6782 129.628 45.9131C128.734 46.1481 126.582 46.8956 124.847 47.574C123.111 48.2527 120.94 49.0214 120.021 49.2831C119.102 49.5444 118.1 49.9585 117.794 50.2031C117.488 50.4477 116.736 50.8161 116.123 51.022C115.511 51.2276 115.046 51.5666 115.09 51.7755C115.134 51.9848 114.867 52.0766 114.497 51.9795C114.127 51.8825 112.933 52.2342 111.842 52.7613C110.752 53.288 109.589 53.7188 109.258 53.7188C108.927 53.7188 108.332 53.9645 107.935 54.2645C107.539 54.5648 106.95 54.8157 106.627 54.8221C105.944 54.8358 101.445 56.7944 98.4914 58.3641C97.3685 58.9608 95.9486 59.6414 95.3361 59.8767C89.8936 61.9657 84.4778 64.5153 84.0286 65.1996C83.9187 65.3669 82.9521 65.7933 81.8801 66.1464C80.8084 66.4995 79.9313 66.9426 79.9313 67.1303C79.9313 67.3184 79.7227 67.4742 79.4673 67.4764C79.2123 67.4786 77.5011 68.2314 75.6651 69.1491C73.8291 70.0669 72.1721 70.8178 71.9824 70.8178C71.7927 70.8178 71.374 71.0505 71.0518 71.3352C70.7292 71.6196 69.1294 72.5533 67.4961 73.4101C61.7644 76.4173 60.8037 76.963 59.5152 77.9432C58.8007 78.487 57.1303 79.4903 55.8032 80.1731C53.007 81.6117 49.4984 83.791 46.7793 85.7793C45.7307 86.5462 44.6691 87.1733 44.42 87.1733C44.1709 87.1733 42.8301 88.1401 41.4404 89.3214C40.0506 90.5031 38.2454 91.9331 37.4288 92.4992C32.7476 95.7451 25.7389 101.419 25.7334 101.968C25.7319 102.111 25.1472 102.626 24.4341 103.112C23.7211 103.598 23.1375 104.226 23.1375 104.506C23.1375 104.786 22.9976 105.016 22.8261 105.016C22.2667 105.016 19.7967 107.327 19.7967 107.851C19.7967 108.131 19.5774 108.361 19.3093 108.361C19.0417 108.361 17.9975 109.362 16.9893 110.586C15.9815 111.809 14.9481 112.891 14.6927 112.99C14.4377 113.089 14.2287 113.403 14.2287 113.687C14.2287 113.972 13.8111 114.519 13.3007 114.902C12.7903 115.286 12.3727 115.78 12.3727 116C12.3727 116.22 11.8838 116.869 11.2862 117.442C10.6886 118.016 9.98626 119.009 9.72605 119.649C9.46547 120.289 8.78506 121.466 8.21415 122.263C7.64324 123.061 7.1759 123.925 7.1759 124.184C7.1759 124.443 7.04301 124.71 6.88042 124.779C6.409 124.976 3.09306 131.641 3.09046 132.396C3.08898 132.772 2.85289 133.532 2.56558 134.084C1.75785 135.634 0.973502 138.764 0.674685 141.63C-0.061407 148.686 -0.138988 150.017 0.172821 150.21C0.327612 150.306 0.379951 151.174 0.289749 152.14C0.174306 153.373 0.520636 155.449 1.45087 159.1C2.1799 161.963 2.87034 164.723 2.98504 165.234C3.10011 165.745 3.68067 166.895 4.27533 167.789C4.87037 168.683 5.45353 169.899 5.57194 170.492C5.69035 171.084 5.93238 171.658 6.11018 171.768C6.28799 171.879 6.4335 172.202 6.4335 172.488C6.4335 173.334 9.74721 178.305 12.6511 181.814C13.7231 183.109 14.5999 184.301 14.5999 184.462C14.5999 184.623 15.532 185.67 16.6709 186.789C17.8101 187.908 19.002 189.264 19.3197 189.802C19.6375 190.341 20.3342 191.042 20.868 191.361C21.4014 191.679 22.6735 192.784 23.6943 193.815C28.5712 198.744 28.9112 199.06 29.3347 199.06C29.5356 199.06 30.2319 199.645 30.8823 200.361C31.5323 201.076 32.1874 201.662 32.3374 201.662C32.4877 201.662 33.0267 202.038 33.5349 202.498C35.1492 203.959 37.6623 205.44 38.1853 205.239C38.5108 205.114 38.6174 205.236 38.4849 205.581C38.3653 205.893 38.5669 206.225 38.9678 206.376C39.3464 206.52 40.2406 207.189 40.9552 207.863C41.6698 208.538 42.3865 209.091 42.5476 209.093C42.8153 209.096 44.9679 210.502 45.4096 210.962C45.5117 211.069 46.0128 211.368 46.5232 211.628C47.8447 212.299 48.7768 212.874 50.1632 213.87C50.8299 214.349 51.6172 214.649 51.9131 214.535C52.2174 214.418 52.896 214.785 53.4773 215.382C54.0419 215.961 55.2546 216.833 56.1722 217.319C57.0898 217.806 58.0085 218.346 58.2138 218.521C58.9287 219.131 67.9886 223.593 68.5109 223.593C68.7066 223.593 69.3098 223.905 69.8517 224.285C70.3937 224.666 71.4379 225.172 72.1721 225.41C72.9063 225.648 74.2902 226.341 75.2471 226.949C76.2044 227.556 77.1543 228.054 77.3581 228.054C77.5619 228.054 78.5586 228.475 79.5724 228.989C80.5865 229.504 81.4161 229.818 81.4161 229.687C81.4161 229.557 81.6429 229.638 81.9206 229.869C82.1979 230.099 83.3256 230.599 84.4262 230.98C85.5268 231.36 87.8238 232.362 89.5309 233.208C91.2377 234.053 92.8528 234.745 93.1197 234.745C93.3866 234.745 94.8254 235.33 96.3161 236.046C97.8072 236.761 99.3143 237.347 99.6655 237.347C100.016 237.347 100.409 237.517 100.537 237.724C100.665 237.932 100.914 238.013 101.09 237.904C101.266 237.795 101.498 237.85 101.606 238.025C101.714 238.2 103.271 238.803 105.065 239.365C106.86 239.928 109.497 240.856 110.927 241.427C112.356 241.999 114.277 242.671 115.195 242.92C116.114 243.17 117.45 243.603 118.165 243.884C118.88 244.165 120.633 244.748 122.063 245.179C123.492 245.611 125.079 246.172 125.589 246.425C126.099 246.678 127.603 247.18 128.93 247.54C130.257 247.9 132.595 248.605 134.127 249.105C137.325 250.151 143.266 251.79 145.461 252.232C146.285 252.399 147.801 252.867 148.831 253.274C150.839 254.066 154.379 254.868 156.249 254.952C156.882 254.981 157.675 255.233 158.013 255.514C158.35 255.794 158.626 255.899 158.626 255.747C158.626 255.594 158.845 255.652 159.113 255.875C159.381 256.098 160.175 256.354 160.877 256.445C161.578 256.535 162.653 256.806 163.266 257.046C165.061 257.749 169.38 258.482 169.602 258.12C169.714 257.939 169.984 257.791 170.2 257.791C170.456 257.791 170.439 257.979 170.151 258.327C169.781 258.773 169.944 258.9 171.127 259.087C173.268 259.426 173.896 259.559 175.516 260.023C176.332 260.256 178.42 260.677 180.156 260.958C181.891 261.238 184.564 261.813 186.095 262.234C187.626 262.656 189.965 263.169 191.292 263.376C192.619 263.582 194.456 263.993 195.375 264.288C196.294 264.583 197.713 264.901 198.53 264.996C199.347 265.09 202.52 265.67 205.583 266.284C208.645 266.898 212.07 267.44 213.192 267.488C214.315 267.536 215.436 267.73 215.682 267.919C215.928 268.108 216.301 268.158 216.51 268.028C216.718 267.899 217.603 268.035 218.475 268.331C220.054 268.867 226.015 269.869 229.897 270.251C234.649 270.719 239.016 271.401 239.609 271.768C239.878 271.935 240.684 272.104 241.401 272.144C242.117 272.184 244.516 272.508 246.732 272.863C249.93 273.375 250.82 273.412 251.048 273.042C251.241 272.729 251.382 272.71 251.474 272.982C251.593 273.335 253.638 273.699 258.85 274.298C259.565 274.38 261.068 274.559 262.191 274.696C263.314 274.834 264.984 274.996 265.903 275.057C266.822 275.118 268.325 275.268 269.244 275.391C270.163 275.513 272 275.692 273.327 275.789C274.654 275.886 277.16 276.153 278.895 276.382C280.63 276.612 282.523 276.706 283.102 276.591C283.679 276.477 284.46 276.548 284.836 276.749C285.211 276.951 287.123 277.193 289.085 277.288C291.046 277.383 292.771 277.536 292.919 277.627C293.235 277.823 301.327 278.286 306.364 278.396C308.303 278.438 311.06 278.602 312.489 278.758C313.918 278.915 316.841 279.096 318.985 279.162C321.128 279.228 326.39 279.405 330.678 279.555C334.965 279.706 339.141 279.815 339.958 279.798C340.774 279.781 341.944 279.757 342.556 279.745C343.169 279.732 347.804 279.789 352.857 279.871C358.414 279.961 362.044 279.882 362.044 279.672C362.044 279.48 362.394 279.512 362.829 279.745C363.284 279.989 364.259 280.069 365.149 279.936C365.993 279.81 368.647 279.688 371.046 279.666C373.989 279.639 375.409 279.49 375.413 279.209C375.417 278.926 375.509 278.936 375.701 279.238C375.902 279.555 377.161 279.641 380.057 279.538C382.298 279.459 387.578 279.313 391.79 279.214C396.003 279.115 400.847 278.927 402.555 278.795C404.263 278.663 406.997 278.471 408.63 278.37C410.263 278.269 412.518 278.116 413.641 278.03C414.764 277.943 417.324 277.797 419.332 277.705C421.338 277.613 423.844 277.442 424.9 277.325C425.955 277.208 428.573 277.031 430.716 276.932C434.513 276.757 436.016 276.62 439.068 276.172C439.885 276.052 442.641 275.804 445.193 275.621C450.625 275.231 457.57 274.341 458.194 273.955C458.434 273.807 460.356 273.639 462.464 273.582C464.574 273.526 466.502 273.354 466.75 273.201C466.998 273.047 468.747 272.897 470.636 272.868C472.525 272.838 474.297 272.633 474.573 272.413C474.849 272.192 476.745 271.9 478.787 271.763C485.567 271.31 489.703 270.832 490.508 270.408C490.83 270.239 492 270.075 493.107 270.043C495.958 269.963 502.548 268.883 504.585 268.163C505.096 267.983 506.599 267.745 507.926 267.633C509.253 267.522 510.757 267.371 511.267 267.298C511.777 267.225 514.116 266.897 516.464 266.568C522.501 265.724 527.167 264.788 528.962 264.06C529.54 263.827 530.764 263.6 531.683 263.557C534.318 263.434 536.9 263.018 538.593 262.442C539.451 262.15 540.962 261.823 541.95 261.716C545.461 261.333 548.404 260.768 549.693 260.228C550.411 259.928 551.622 259.593 552.384 259.485C556.163 258.947 561.81 257.795 564.349 257.044C568.054 255.948 573.358 254.711 574.184 254.75C574.591 254.769 575.677 254.526 576.596 254.21C577.516 253.894 578.603 253.557 579.011 253.461C580.016 253.226 580.398 253.11 581.053 252.847C581.359 252.724 582.213 252.536 582.951 252.429C583.689 252.323 584.744 252.064 585.295 251.854C585.846 251.644 586.788 251.472 587.387 251.472C587.986 251.472 588.477 251.344 588.477 251.188C588.477 250.867 591.665 249.977 593.766 249.711C594.532 249.614 595.158 249.385 595.158 249.203C595.158 249.02 595.573 248.87 596.079 248.87C596.585 248.87 597.646 248.611 598.437 248.294C599.227 247.977 600.024 247.757 600.207 247.804C600.592 247.904 605.925 246.316 606.48 245.936C606.684 245.797 607.352 245.633 607.965 245.573C608.577 245.513 609.421 245.245 609.839 244.977C610.538 244.529 615.127 243.116 616.874 242.811C617.282 242.74 618.247 242.408 619.017 242.074C619.788 241.739 621.041 241.363 621.801 241.238C623.181 241.01 627.755 239.293 629.866 238.21C630.478 237.896 632.232 237.313 633.763 236.914C635.294 236.516 637.661 235.627 639.022 234.94C640.383 234.253 641.58 233.775 641.683 233.878C641.895 234.09 644.43 232.988 645.27 232.317C645.577 232.073 646.383 231.768 647.063 231.639C647.743 231.511 649.831 230.675 651.703 229.782C653.575 228.888 655.692 227.938 656.406 227.671C657.642 227.208 658.919 226.553 662.078 224.761C662.851 224.323 663.715 223.965 664.001 223.965C664.286 223.965 664.758 223.726 665.049 223.435C665.34 223.143 666.19 222.649 666.937 222.336C667.684 222.024 668.394 221.511 668.515 221.196C668.635 220.881 668.894 220.723 669.089 220.844C669.285 220.964 670.645 220.489 672.113 219.786C673.58 219.083 675.324 218.294 675.987 218.032C677.096 217.594 677.372 217.234 677.228 216.41C677.199 216.241 677.49 216.203 677.875 216.325C678.276 216.453 678.765 216.316 679.023 216.005C679.27 215.707 679.973 215.353 680.585 215.218C681.198 215.084 681.789 214.739 681.899 214.451C682.009 214.164 682.392 213.929 682.751 213.929C683.11 213.929 683.802 213.617 684.289 213.236C684.776 212.855 685.542 212.429 685.991 212.288C686.44 212.147 687.335 211.539 687.979 210.936C688.623 210.333 689.354 209.84 689.602 209.84C689.85 209.84 690.71 209.343 691.512 208.735C692.314 208.127 693.153 207.625 693.376 207.62C693.6 207.614 694.085 207.275 694.455 206.866C694.824 206.457 695.321 206.123 695.559 206.123C695.797 206.123 696.553 205.621 697.239 205.007C697.925 204.394 698.622 203.892 698.788 203.892C698.954 203.892 701.109 202.345 703.576 200.454C706.044 198.563 708.342 196.846 708.683 196.638C709.542 196.115 712.458 193.23 712.458 192.903C712.458 192.592 713.728 191.381 716.523 189.024C719.003 186.932 719.16 186.777 720.068 185.5C720.476 184.926 721.128 184.187 721.517 183.859C723.588 182.109 725.062 180.539 725.566 179.545C725.876 178.931 726.879 177.63 727.794 176.652C728.71 175.675 729.564 174.456 729.692 173.943C729.821 173.43 730.399 172.557 730.976 172.003C731.554 171.448 732.491 169.908 733.058 168.579C733.625 167.25 734.383 165.88 734.741 165.534C735.1 165.189 735.678 164.101 736.025 163.118C736.372 162.135 736.891 160.887 737.178 160.344C737.465 159.801 737.7 159.007 737.7 158.579C737.7 158.15 737.845 157.799 738.022 157.799C738.398 157.799 739.169 155.226 739.36 153.339C739.539 151.566 739.524 151.597 739.914 152.216C740.247 152.743 740.976 149.975 740.732 149.113C740.681 148.936 740.806 148.267 741.01 147.627C741.213 146.986 741.472 145.375 741.586 144.046C741.699 142.717 741.867 140.751 741.959 139.678C742.056 138.548 741.975 137.727 741.766 137.727C741.546 137.727 741.559 137.474 741.8 137.076C742.084 136.608 742.05 135.591 741.678 133.452C741.362 131.631 741.296 130.389 741.51 130.247C741.727 130.103 741.723 129.751 741.499 129.317C741.3 128.934 741.021 127.544 740.877 126.229C740.734 124.914 740.391 123.515 740.114 123.12C739.838 122.725 739.701 122.168 739.81 121.883C739.919 121.598 739.739 120.954 739.411 120.452C739.082 119.95 738.813 119.308 738.813 119.025C738.813 118.548 738.117 116.847 737.305 115.336C737.113 114.981 736.957 114.437 736.957 114.128C736.957 113.818 736.79 113.565 736.586 113.565C736.382 113.565 736.215 113.157 736.215 112.658C736.215 112.159 736.052 111.65 735.854 111.527C735.655 111.404 735.32 110.662 735.109 109.877C734.898 109.092 733.739 106.968 732.534 105.156C731.329 103.344 730.416 101.743 730.505 101.599C730.594 101.454 730.162 100.962 729.543 100.504C728.925 100.046 728.419 99.447 728.419 99.1727C728.419 98.898 728.17 98.5772 727.865 98.4601C727.559 98.3426 726.944 97.5951 726.497 96.7989C726.05 96.0027 725.52 95.351 725.32 95.351C725.119 95.351 725.052 95.2533 725.172 95.1343C725.291 95.015 725.109 94.6255 724.769 94.2686C723.594 93.036 722.664 91.8056 722.132 90.7793C721.83 90.1961 721.387 89.8307 721.111 89.9366C720.844 90.0396 720.624 89.9496 720.624 89.7366C720.624 89.1545 717.234 85.6864 716.665 85.6864C716.393 85.6864 716.17 85.4552 716.17 85.1731C716.17 84.8906 715.543 84.1839 714.778 83.6022C714.012 83.0208 713.002 82.1648 712.534 81.6998C712.065 81.2347 711.528 80.8541 711.339 80.8541C711.15 80.8541 711.081 80.6344 711.184 80.366C711.433 79.7159 710.031 78.4781 709.345 78.742C708.983 78.881 708.676 78.5866 708.423 77.8577C708.213 77.257 707.9 76.7652 707.726 76.7652C707.553 76.7652 706.741 76.1378 705.922 75.3713C705.103 74.6048 703.471 73.1637 702.296 72.1689L700.159 70.3605L700.937 69.5316C703.586 66.7073 701.037 60.8008 695.317 56.5115C694.23 55.6967 693.258 54.9295 693.155 54.8068C692.812 54.3942 687.783 50.848 686.659 50.2258C686.047 49.8868 684.961 49.2538 684.247 48.8196C682.411 47.7037 679.215 45.9693 676.823 44.7902C670.021 41.4392 667.694 40.337 667.421 40.337C667.252 40.337 665.915 39.7664 664.451 39.0691C662.08 37.9398 651.911 34.0178 651.355 34.0178C651.235 34.0178 650.61 33.7759 649.967 33.48C648.242 32.6867 637.463 29.1855 636.745 29.1855C636.407 29.1855 635.438 28.851 634.593 28.4421C633.748 28.0332 632.838 27.6987 632.57 27.6987C632.303 27.6987 630.749 27.2693 629.119 26.7445C627.488 26.2196 624.316 25.3156 622.07 24.7361C619.825 24.1562 616.4 23.2719 614.461 22.7716C612.521 22.2709 610.016 21.6534 608.893 21.3999C607.77 21.1461 606.35 20.7926 605.738 20.6141C600.922 19.2109 599.234 18.8013 597.942 18.7243C597.126 18.6756 595.934 18.4225 595.294 18.1619C594.151 17.6965 593.686 17.5973 590.333 17.1048C589.414 16.9694 588.161 16.7159 587.549 16.5412C586.308 16.1874 583.197 15.3198 582.909 15.2477C582.807 15.2224 581.804 15.0737 580.682 14.9176C575.989 14.2652 569.667 13.1579 568.803 12.8371C568.293 12.6475 567.207 12.397 566.39 12.2802C564.422 11.9996 560.769 11.4316 559.152 11.1554C556.142 10.641 553.28 10.2421 551.542 10.0949C550.521 10.0083 549.269 9.78083 548.758 9.58902C548.248 9.39722 546.995 9.19798 545.974 9.14594C544.953 9.09427 543.116 8.82143 541.891 8.5393C540.666 8.25753 537.743 7.85088 535.395 7.63603C533.047 7.4208 529.957 7.08477 528.528 6.8885C527.099 6.69224 525.261 6.44467 524.445 6.33799C523.628 6.23131 521.623 5.95661 519.99 5.72726C518.357 5.49828 516.352 5.26559 515.536 5.21021C514.131 5.11505 510.137 4.7779 506.441 4.44335C505.523 4.36009 503.518 4.19579 501.987 4.07833C500.456 3.96124 498.342 3.69918 497.29 3.49622C496.237 3.29326 494.65 3.13305 493.763 3.14012C492.876 3.14718 490.48 2.98771 488.438 2.78587C486.396 2.58403 483.056 2.3491 481.014 2.26435C478.972 2.17997 475.548 1.93538 473.404 1.72165C471.261 1.50754 466.667 1.24213 463.196 1.13136C459.726 1.02059 455.55 0.824324 453.916 0.694966C452.283 0.565609 448.191 0.421755 444.822 0.37529C441.453 0.328826 438.614 0.243331 438.512 0.185343C438.304 0.0671376 399.555 -0.0729994 399.43 0.0440912ZM431.087 16.3487C451.961 16.5435 463.009 16.9274 479.344 18.0266C482.916 18.2671 487.072 18.5277 488.578 18.6061C490.085 18.6845 491.388 18.8191 491.474 18.9053C491.56 18.992 492.199 18.934 492.894 18.7771C493.621 18.6128 494.207 18.6388 494.274 18.8377C494.38 19.1581 497.962 19.512 506.812 20.077C508.752 20.2012 510.966 20.4677 511.733 20.6699C512.5 20.8721 513.753 21.0186 514.517 20.9951C515.281 20.9721 517.16 21.126 518.691 21.3375C520.222 21.549 523.646 21.9066 526.301 22.1322C528.955 22.3579 531.46 22.6861 531.869 22.8615C532.277 23.037 533.613 23.2831 534.838 23.4079C536.063 23.5328 538.652 23.8113 540.592 24.0269C542.531 24.2421 544.536 24.412 545.046 24.4042C545.557 24.3963 546.475 24.548 547.088 24.7409C548.122 25.0669 554.301 25.9717 558.595 26.4259C559.616 26.5341 561.425 26.8645 562.616 27.1604C563.806 27.4563 565.226 27.7016 565.771 27.705C566.316 27.7087 567.931 27.9622 569.36 28.2685C570.789 28.5748 573.879 29.1725 576.227 29.5974C581.464 30.5445 585.054 31.2199 587.724 31.76C588.84 31.986 590.344 32.2522 591.064 32.3511C591.785 32.4503 592.921 32.6072 593.589 32.7005C594.258 32.7934 594.975 32.9752 595.184 33.1045C595.746 33.4525 602.334 34.762 602.531 34.565C602.624 34.4721 602.882 34.5446 603.105 34.726C603.328 34.9074 604.095 35.1389 604.81 35.2408C605.524 35.3423 606.359 35.5125 606.666 35.6188C606.972 35.7251 608.559 36.0943 610.192 36.4385C611.825 36.783 613.496 37.1923 613.904 37.3477C615.345 37.8975 618.763 38.8372 621.514 39.4404C628.929 41.0667 631.977 42.164 631.492 43.032C631.292 43.3899 631.246 43.6825 631.389 43.6825C631.533 43.6825 631.352 44.014 630.986 44.4188C630.436 45.0273 630.403 45.2552 630.795 45.7288C631.057 46.0444 631.163 46.4098 631.032 46.5413C630.901 46.6726 630.791 46.5432 630.788 46.2536C630.78 45.4585 630.064 46.6592 630.057 47.481C630.053 47.9353 630.239 48.0494 630.701 47.8758C631.26 47.6662 631.282 47.716 630.862 48.2345C630.448 48.7445 630.493 48.9568 631.154 49.6188C631.583 50.0485 631.845 50.5447 631.737 50.7213C631.627 50.8975 632.164 51.571 632.929 52.2178C633.694 52.8642 635.072 54.1117 635.99 54.9893C637.603 56.5297 645.047 62.2802 646.069 62.7746C646.344 62.9076 647.238 63.4347 648.055 63.9458C650.701 65.6022 656.071 68.2157 656.827 68.2157C657.232 68.2157 657.468 68.3711 657.351 68.5607C657.234 68.7506 658.18 69.4361 659.454 70.0844C660.727 70.7323 662.442 71.7393 663.264 72.3217C664.086 72.9042 665.205 73.4885 665.752 73.6198C666.298 73.751 667.04 74.184 667.399 74.5818C667.759 74.9799 668.732 75.6084 669.561 75.9787C670.39 76.3493 671.821 77.2258 672.739 77.9265C673.658 78.6275 675.039 79.5687 675.808 80.0185C676.577 80.4683 677.412 81.0046 677.664 81.2102C680.319 83.3781 683.493 85.747 684.244 86.121C685.416 86.7045 688.224 88.8631 689.446 90.1195C689.957 90.6459 691.11 91.6618 692.007 92.3773C697.555 96.8037 705.032 103.568 705.036 104.165C705.036 104.326 705.58 105.072 706.242 105.823C706.905 106.573 708.282 108.33 709.303 109.726C710.323 111.122 711.368 112.398 711.623 112.562C711.878 112.725 712.087 113.082 712.087 113.355C712.087 113.628 712.517 114.134 713.044 114.479C713.592 114.839 713.916 115.329 713.802 115.625C713.693 115.91 713.764 116.243 713.96 116.364C714.156 116.485 714.645 117.307 715.047 118.19C715.449 119.074 716.043 119.899 716.368 120.024C716.693 120.149 716.852 120.425 716.721 120.637C716.589 120.85 717.018 122.315 717.674 123.891C719.049 127.2 720.285 131.427 720.008 131.876C719.903 132.045 719.975 132.385 720.166 132.632C720.475 133.029 720.473 136.35 720.161 144.016C720.099 145.513 719.891 146.459 719.601 146.556C719.347 146.64 719.134 147.156 719.128 147.701C719.121 148.246 718.871 149.017 718.571 149.414C718.271 149.811 718.026 150.45 718.026 150.835C718.026 151.605 714.519 158.693 713.596 159.79C713.276 160.169 713.068 160.504 713.133 160.533C713.385 160.647 712.46 162.632 712.155 162.632C711.884 162.632 711.554 163.15 710.676 164.955C710.601 165.109 710.804 165.133 711.128 165.008C711.451 164.884 711.715 164.958 711.715 165.173C711.715 165.387 711.366 165.495 710.938 165.413C710.209 165.272 706.519 168.559 706.519 169.349C706.519 169.505 705.767 170.44 704.848 171.428C703.93 172.416 703.178 173.35 703.178 173.504C703.178 173.658 702.931 173.783 702.628 173.783C702.326 173.783 701.974 174.201 701.846 174.712C701.718 175.224 701.357 175.642 701.044 175.642C700.731 175.642 699.275 176.864 697.808 178.357C696.341 179.85 694.568 181.344 693.869 181.678C693.171 182.011 692.023 182.88 691.319 183.609C690.616 184.338 689.819 184.935 689.548 184.935C689.277 184.935 688.877 185.33 688.657 185.812C688.437 186.295 687.731 186.926 687.087 187.215C686.444 187.503 685.966 187.965 686.025 188.241C686.093 188.556 685.922 188.662 685.567 188.525C684.782 188.224 682.767 189.442 682.764 190.22C682.763 190.627 682.565 190.783 682.219 190.65C681.911 190.532 681.291 190.858 680.784 191.406C680.294 191.935 679.576 192.369 679.189 192.369C678.802 192.369 678.069 192.746 677.561 193.205C677.053 193.665 675.699 194.51 674.552 195.083C673.405 195.656 672.152 196.415 671.768 196.77C671.383 197.124 670.484 197.645 669.77 197.927C669.055 198.208 668.207 198.662 667.884 198.935C667.562 199.208 667.135 199.432 666.936 199.432C666.736 199.432 665.998 199.864 665.295 200.393C664.591 200.922 663.64 201.503 663.181 201.685C662.722 201.866 662.346 202.187 662.346 202.396C662.346 202.606 661.936 202.777 661.436 202.777C660.936 202.777 660.393 202.996 660.23 203.263C660.067 203.53 659.098 204.009 658.077 204.327C656.759 204.739 656.189 205.121 656.109 205.644C656.032 206.161 655.698 206.391 654.996 206.411C654.445 206.427 653.493 206.702 652.88 207.022C652.268 207.343 651.566 207.606 651.322 207.607C650.928 207.609 649.107 208.503 646.941 209.757C645.175 210.78 640.583 212.813 640.039 212.813C639.712 212.813 639.058 213.149 638.585 213.56C638.112 213.971 637.043 214.488 636.208 214.71C635.374 214.932 634.42 215.253 634.087 215.425C633.755 215.596 632.857 215.854 632.091 215.998C631.208 216.164 630.634 216.504 630.523 216.927C630.422 217.317 630.131 217.51 629.824 217.393C629.536 217.281 629.093 217.361 628.84 217.57C628.588 217.778 627.546 218.072 626.525 218.224C625.504 218.375 623.301 219.144 621.629 219.931C619.957 220.719 618.32 221.363 617.991 221.363C617.662 221.363 616.918 221.609 616.337 221.91C615.756 222.211 614.584 222.568 613.732 222.705C612.881 222.841 611.964 223.172 611.696 223.441C611.428 223.71 611.117 223.837 611.004 223.725C610.892 223.613 610.329 223.776 609.754 224.088C609.178 224.4 607.872 224.847 606.851 225.081C605.83 225.316 604.494 225.729 603.882 226.001C603.269 226.273 602.183 226.598 601.469 226.723C600.754 226.849 599.084 227.352 597.757 227.842C596.43 228.332 594.704 228.841 593.921 228.973C592.891 229.148 592.554 229.362 592.703 229.749C592.929 230.338 592.361 230.492 592.017 229.935C591.774 229.541 590.756 229.671 589.725 230.226C588.385 230.949 585.853 231.771 584.965 231.771C584.47 231.771 583.963 231.938 583.837 232.143C583.711 232.347 583.07 232.514 582.414 232.514C581.756 232.514 580.222 233.011 579.002 233.618C576.635 234.796 576.046 234.967 576.413 234.373C576.539 234.169 576.381 234.001 576.063 234.001C575.745 234.001 575.485 234.145 575.485 234.321C575.485 234.497 575.04 234.557 574.496 234.452C573.664 234.293 573.547 234.368 573.762 234.928C573.971 235.473 573.921 235.513 573.485 235.151C572.936 234.695 568.029 235.698 567.751 236.323C567.684 236.477 567.243 236.505 566.771 236.387C566.3 236.268 565.801 236.355 565.663 236.579C565.524 236.804 565.248 236.886 565.049 236.763C564.85 236.64 564.472 236.718 564.208 236.937C563.945 237.156 563.153 237.41 562.449 237.499C560.923 237.695 559.097 238.118 558.631 238.384C558.447 238.489 557.779 238.608 557.147 238.648C555.527 238.751 551.813 239.554 550.658 240.051C550.123 240.281 549.269 240.51 548.758 240.56C547.071 240.726 543.388 241.477 542.633 241.809C542.225 241.989 541.306 242.249 540.592 242.387C539.877 242.525 539.128 242.737 538.926 242.857C538.725 242.977 537.331 243.107 535.829 243.145C534.327 243.183 532.914 243.4 532.688 243.626C532.462 243.852 531.822 244.038 531.266 244.038C530.71 244.038 529.365 244.216 528.278 244.435C527.19 244.654 525.131 245.069 523.702 245.358C522.273 245.646 519.099 246.231 516.649 246.656C514.199 247.082 511.694 247.581 511.081 247.767C510.469 247.952 509.383 248.126 508.668 248.155C506.715 248.231 505.301 248.526 505.483 248.82C505.572 248.964 505.364 249.104 505.022 249.13C504.175 249.195 500.722 249.547 498.46 249.799C497.44 249.913 495.928 250.069 495.102 250.147C494.276 250.224 492.94 250.454 492.133 250.657C491.326 250.86 489.288 251.131 487.605 251.258C485.921 251.385 484.084 251.67 483.521 251.89C482.959 252.111 481.58 252.346 480.457 252.413C476.288 252.66 470.111 253.571 469.572 254.019C469.267 254.274 468.927 254.338 468.819 254.162C468.601 253.81 468.408 253.818 462.27 254.45C459.923 254.691 457.727 255.037 457.389 255.218C457.052 255.398 454.88 255.645 452.562 255.766C448.295 255.988 447.666 256.034 442.483 256.517C440.043 256.744 439.623 256.88 439.814 257.381C439.995 257.859 439.947 257.885 439.573 257.512C438.974 256.916 436.358 256.931 433.427 257.546C432.047 257.836 430.895 257.899 430.547 257.704C430.229 257.525 429.76 257.508 429.507 257.665C429.253 257.823 427.877 257.99 426.447 258.037C423.495 258.135 419.169 258.453 417.586 258.691C417 258.779 414.418 258.961 411.85 259.095C409.281 259.229 405 259.494 402.336 259.684C399.673 259.874 396.157 260.058 394.524 260.092C392.891 260.126 391.432 260.333 391.282 260.553C391.097 260.822 391.007 260.804 391.003 260.496C391 260.179 390.523 260.102 389.42 260.242C385.908 260.686 379.624 260.788 354.434 260.809C336.556 260.824 327.927 260.957 327.607 261.222C327.251 261.517 327.189 261.47 327.357 261.031C327.541 260.553 327.261 260.447 325.788 260.44C323.728 260.431 313.564 260.035 310.262 259.836C309.037 259.762 305.946 259.614 303.394 259.507C300.842 259.401 298.42 259.241 298.012 259.152C297.604 259.063 294.854 258.876 291.902 258.736C288.949 258.596 286.438 258.422 286.322 258.35C286.205 258.278 284.779 258.109 283.152 257.974C281.525 257.839 279.526 257.658 278.709 257.57C277.893 257.483 276.389 257.348 275.369 257.269C274.348 257.191 271.842 256.925 269.801 256.678C267.759 256.431 265.182 256.178 264.074 256.115C262.967 256.051 260.795 255.812 259.249 255.583C252.391 254.566 245.433 253.786 244.77 253.959C244.373 254.064 243.226 253.875 242.221 253.541C241.217 253.207 239.244 252.875 237.837 252.804C235.155 252.668 233.052 252.374 232.554 252.066C232.392 251.966 230.851 251.775 229.13 251.641C227.408 251.508 225.798 251.235 225.553 251.034C225.309 250.833 224.641 250.706 224.069 250.752C223.497 250.798 222.754 250.716 222.418 250.571C222.082 250.426 221.581 250.351 221.304 250.405C220.352 250.591 217.276 249.939 217.276 249.551C217.276 249.337 217.024 249.259 216.716 249.377C216.408 249.495 215.711 249.423 215.168 249.217C214.109 248.813 210.629 248.356 209.109 248.42C208.599 248.442 207.621 248.201 206.936 247.886C206.251 247.57 205.297 247.387 204.814 247.479C204.333 247.571 203.889 247.5 203.83 247.321C203.709 246.958 202.773 246.754 200.015 246.491C198.994 246.393 198.159 246.281 198.159 246.243C198.159 246.204 197.825 246.116 197.416 246.046C195.181 245.663 192.521 245.092 192.034 244.89C191.728 244.763 191.227 244.642 190.92 244.622C190.614 244.601 190.178 244.465 189.951 244.32C189.724 244.176 187.887 243.791 185.868 243.465C183.849 243.14 181.422 242.623 180.475 242.318C179.528 242.012 177.774 241.666 176.577 241.549C175.381 241.431 174.23 241.2 174.019 241.035C173.808 240.871 172.389 240.457 170.864 240.116C165.957 239.018 164.04 238.518 162.524 237.943C161.707 237.633 160.361 237.372 159.532 237.363C158.702 237.354 157 236.945 155.749 236.454C154.498 235.963 152.761 235.441 151.888 235.293C151.016 235.145 150.046 234.896 149.731 234.738C149.165 234.455 145.43 233.307 140.066 231.769C138.535 231.329 137.021 230.834 136.703 230.668C136.385 230.502 135.132 230.172 133.919 229.934C131.882 229.535 130.801 229.182 129.263 228.413C128.936 228.25 127.516 227.831 126.108 227.482C124.7 227.133 123.13 226.639 122.619 226.383C122.109 226.126 120.773 225.631 119.65 225.281C118.527 224.931 117.274 224.498 116.866 224.318C115.747 223.825 112.25 222.621 106.472 220.739C103.614 219.808 100.19 218.548 98.8626 217.938C94.9356 216.134 94.292 215.865 92.819 215.411C92.0469 215.173 90.7106 214.596 89.8494 214.129C88.9879 213.662 87.3646 212.967 86.2417 212.585C85.1188 212.203 84.111 211.77 84.0019 211.624C83.8928 211.477 82.807 210.918 81.5891 210.382C79.3288 209.388 73.6576 206.557 70.6513 204.923C64.8071 201.746 61.1047 199.649 59.9395 198.856C59.2031 198.355 58.3749 197.945 58.0995 197.945C57.8241 197.945 56.8853 197.359 56.013 196.644C55.141 195.928 54.3181 195.343 54.1841 195.343C54.0504 195.343 53.249 194.841 52.4034 194.228C51.5582 193.614 50.6825 193.112 50.4579 193.112C50.0763 193.112 48.7255 192.126 47.1379 190.688C46.7615 190.348 45.8591 189.665 45.1323 189.171C44.4055 188.677 43.4608 187.937 43.0328 187.526C41.8208 186.361 37.2432 182.666 37.2432 182.852C37.2432 183.033 35.6671 181.438 32.232 177.777C26.9832 172.185 26.1072 171.194 26.1072 170.852C26.1072 170.653 25.8867 170.27 25.6172 169.999C23.9419 168.32 19.4255 160.507 19.4255 159.288C19.4255 158.96 19.2848 158.533 19.1126 158.338C17.3457 156.345 16.7874 147.42 18.1037 142.207C19.1798 137.943 21.8291 132.2 23.8833 129.679C24.191 129.301 24.7716 128.343 25.1728 127.551C25.5741 126.76 26.2909 125.856 26.766 125.545C27.2412 125.233 27.8555 124.543 28.1313 124.011C29.1206 122.103 40.1861 111.45 43.2292 109.476C44.0172 108.965 44.6676 108.38 44.6746 108.175C44.6813 107.971 45.381 107.385 46.2296 106.874C47.0778 106.363 49.1242 104.922 50.7772 103.672C52.4301 102.421 54.7802 100.836 55.9992 100.15C58.1273 98.9511 63.9559 95.0975 64.3409 94.6347C64.61 94.311 68.685 92.3773 69.0978 92.3773C69.2897 92.3773 69.6342 92.1513 69.8628 91.8751C70.0919 91.5989 71.6576 90.6537 73.3421 89.7749C75.0266 88.8962 77.6042 87.4495 79.0701 86.5603C80.536 85.6708 81.8723 84.943 82.0397 84.943C82.4117 84.943 89.0361 81.6228 90.3249 80.7905C90.8353 80.4608 91.9211 79.9713 92.7377 79.7022C93.5544 79.4334 94.4731 79.0379 94.7793 78.823C95.8465 78.0751 104.444 74.0692 106.751 73.2447C107.721 72.8983 108.514 72.4615 108.514 72.2738C108.514 72.0864 108.639 71.9727 108.792 72.0214C109.072 72.1102 110.411 71.63 113.154 70.4572C116.038 69.2235 118.38 68.2674 120.949 67.2742C122.378 66.7218 124.466 65.8843 125.589 65.413C126.712 64.9413 129.05 64.1031 130.786 63.5503C132.521 62.9972 134.108 62.4129 134.313 62.2516C134.518 62.0902 135.604 61.6051 136.726 61.1736C137.848 60.7424 139.101 60.238 139.509 60.0532C139.917 59.8685 145.263 58.1062 151.387 56.1372C157.512 54.1678 163.442 52.2531 164.565 51.8825C165.688 51.5116 167.86 50.8458 169.391 50.4027C170.922 49.96 172.676 49.4181 173.288 49.1987C176.273 48.1289 181.686 46.5897 183.639 46.2547C184.84 46.0488 186.266 45.6511 186.807 45.3708C187.348 45.0905 188.453 44.7415 189.263 44.595C190.073 44.4486 190.902 44.2051 191.106 44.0534C191.494 43.7661 196.869 42.5038 198.159 42.3974C198.567 42.3636 200.071 41.9808 201.5 41.5466C202.929 41.1124 205.601 40.408 207.439 39.9817C209.276 39.5549 212.951 38.6896 215.605 38.0588C220.531 36.8875 220.82 36.8269 223.4 36.4217C224.217 36.2939 225.219 36.037 225.628 35.8512C226.036 35.6653 227.845 35.262 229.649 34.9546C231.451 34.6472 233.051 34.3193 233.202 34.2256C233.353 34.132 234.551 33.8643 235.863 33.6313C237.175 33.3978 239 33.0562 239.919 32.8718C240.838 32.6875 242.066 32.4574 242.65 32.3607C243.233 32.2637 243.91 32.0188 244.154 31.8158C244.398 31.6128 244.966 31.5433 245.415 31.6612C245.865 31.779 246.441 31.7177 246.695 31.5251C246.949 31.3326 247.909 31.1337 248.828 31.0835C249.746 31.033 251.584 30.749 252.911 30.452C255.437 29.8866 263.669 28.5046 265.903 28.2707C267.873 28.0644 269.607 27.7775 271.657 27.3177C272.677 27.0887 274.849 26.7512 276.482 26.5679C279.414 26.2386 282.499 25.7583 286.149 25.0628C288.148 24.6818 293.086 24.0142 295.228 23.8354C297.516 23.6444 301.282 23.218 303.766 22.8693C305.093 22.6831 307.181 22.4318 308.406 22.3114C309.63 22.1906 313.055 21.8423 316.015 21.5375C318.975 21.2323 322.284 20.9085 323.368 20.8178C324.452 20.7271 325.491 20.5591 325.676 20.4443C325.862 20.3294 327.48 20.2324 329.273 20.2287C331.067 20.2249 333.452 20.0755 334.575 19.8971C336.891 19.5287 342.559 19.0685 344.783 19.0682C345.6 19.0682 347.103 18.9291 348.124 18.7596C349.145 18.5901 352.319 18.3288 355.177 18.179C358.035 18.0296 361.209 17.8634 362.23 17.8103C363.25 17.7571 365.422 17.6259 367.055 17.5181C368.689 17.4107 373.366 17.2222 377.449 17.0992C381.532 16.9765 386.543 16.7486 388.585 16.5936C390.627 16.4386 392.394 16.4539 392.512 16.6278C392.631 16.8018 392.965 16.8576 393.255 16.7524C393.545 16.6468 397.344 16.4888 401.698 16.4015C406.052 16.3141 409.715 16.1416 409.838 16.0186C409.961 15.8956 410.575 15.8803 411.201 15.9844C411.829 16.0885 420.777 16.2524 431.087 16.3487ZM713.1 163.6C712.976 163.723 712.656 163.736 712.388 163.629C712.092 163.51 712.18 163.422 712.613 163.404C713.004 163.389 713.223 163.476 713.1 163.6ZM657.565 206.373C657.128 207.127 657.022 206.886 657.381 205.951C657.508 205.619 657.69 205.425 657.786 205.521C657.881 205.617 657.782 206 657.565 206.373Z" fill="#09C6CD"/>
</svg>
